<svg width="144" height="53" viewBox="0 0 144 53" fill="none" xmlns="http://www.w3.org/2000/svg">
<path d="M0.81012 16.7943C3.03943 16.4773 5.74651 16.2404 8.69236 16.2404C13.7878 16.2404 17.2113 17.2681 19.7593 19.3223C22.3869 21.4555 23.9788 24.6953 23.9788 29.1986C23.9788 34.0978 22.3073 37.6535 19.7593 39.9447C17.0522 42.3937 12.7531 43.5793 7.49806 43.5793C4.6318 43.5793 2.48208 43.4214 0.81012 43.2635V16.7943ZM5.74651 39.6288C6.46305 39.7078 7.49806 39.7078 8.53307 39.7078C14.9021 39.7867 18.7246 36.231 18.7246 29.3566C18.8042 23.5097 15.3011 20.033 9.17002 20.033C7.57765 20.033 6.46305 20.191 5.74651 20.3489V39.6288Z" fill="black"/>
<path d="M25.4921 30.1473C25.4921 27.5392 25.4125 25.564 25.3329 23.9046H29.5523L29.7911 27.5392H29.8707C30.9064 24.8533 33.135 23.4308 35.285 23.4308C35.7626 23.4308 36.081 23.5097 36.4789 23.5887V28.172C36.0014 28.0931 35.6034 28.0141 34.9667 28.0141C32.6575 28.0141 30.986 29.5145 30.587 31.7277C30.5074 32.2015 30.4278 32.6753 30.4278 33.2281V43.3424H25.4921V30.1473Z" fill="black"/>
<path d="M41.0178 34.9665C41.177 38.5222 43.8841 40.0237 47.0689 40.0237C49.377 40.0237 50.9699 39.6288 52.5618 39.155L53.2792 42.4727C51.5271 43.1845 49.2178 43.7373 46.4311 43.7373C40.0616 43.7373 36.3197 39.8657 36.3197 33.9399C36.3197 28.4879 39.5841 23.4308 45.8739 23.4308C52.2434 23.4308 54.3139 28.6459 54.3139 32.9123C54.3139 33.8609 54.2343 34.5717 54.1547 34.9665H41.0178ZM49.6954 31.5688C49.6954 29.7525 48.8995 26.8285 45.6352 26.8285C42.53 26.8285 41.2565 29.5145 41.0178 31.5688H49.6954Z" fill="black"/>
<path d="M58.6925 23.9046L60.6833 32.6754C61.1609 34.8086 61.6384 36.8628 61.9568 38.996H62.0364C62.4354 36.8628 63.0722 34.7296 63.6293 32.7543L66.1773 23.9046H70.2375L72.706 32.5174C73.2631 34.8086 73.8202 36.8628 74.2182 38.996H74.2978C74.6162 36.8628 75.0948 34.8086 75.6519 32.5174L77.8009 23.9046H82.6581L76.5274 43.3424H71.91L69.6008 35.4414C68.9641 33.3861 68.5651 31.5687 68.0875 29.1986H68.0079C67.61 31.5687 67.0528 33.4661 66.4957 35.4414L64.0273 43.3424H59.4099L53.5975 23.9046H58.6925Z" fill="black"/>
<path d="M83.6132 30.1473C83.6132 27.5392 83.5336 25.564 83.454 23.9046H87.6734L87.9133 27.5392H87.9929C88.948 24.8533 91.2572 23.4308 93.4062 23.4308C93.8837 23.4308 94.2031 23.5097 94.6011 23.5887V28.172C94.1236 28.0931 93.7245 28.0141 93.0878 28.0141C90.7786 28.0141 89.1071 29.5145 88.6296 31.7277C88.55 32.2015 88.55 32.6753 88.55 33.2281V43.3424H83.6132V30.1473Z" fill="black"/>
<path d="M100.811 23.9046L104.314 34.3348C104.712 35.5203 105.19 36.9418 105.429 38.0484H105.588C105.827 36.9418 106.225 35.5203 106.623 34.2558L109.649 23.9046H114.987L110.042 37.0997C107.336 44.369 105.508 47.609 103.199 49.6633C101.289 51.3225 99.2185 51.9546 98.0246 52.1127L96.9092 48.004C97.7858 47.7669 98.7409 47.3718 99.7756 46.6608C100.732 46.0284 101.846 44.9229 102.483 43.5793C102.722 43.1845 102.801 42.9476 102.801 42.7096C102.801 42.4727 102.722 42.2358 102.562 41.762L95.3174 23.9046H100.811Z" fill="black"/>
<path d="M126.13 25.2481C123.339 21.8503 119.126 14.819 123.18 6.20615C123.18 6.20615 114.35 14.1072 122.787 31.016C123.657 28.4089 124.857 26.5126 126.13 25.2481Z" fill="black"/>
<path d="M127.563 24.2215C130.99 21.4555 134.015 21.2186 134.015 21.2186C134.015 21.2186 122.946 11.6581 127.159 0.280348C120.633 10.3936 124.697 19.7171 127.563 24.2215Z" fill="black"/>
<path d="M135.204 22.6411C131.786 25.485 128.762 25.6429 128.762 25.6429C128.762 25.6429 139.905 35.2824 135.607 46.7398C142.133 36.5469 138.069 27.2234 135.204 22.6411Z" fill="#22B5B0" fill-opacity="0.32"/>
<path d="M136.636 21.6924C139.501 25.0112 143.725 32.1226 139.661 40.7344C139.661 40.7344 148.426 32.8333 140.064 15.9245C139.109 18.5326 137.91 20.3489 136.636 21.6924Z" fill="#22B5B0" fill-opacity="0.32"/>
</svg>
